<svg xmlns="http://www.w3.org/2000/svg" xmlns:xlink="http://www.w3.org/1999/xlink" width="160" zoomAndPan="magnify" viewBox="0 0 120 30.000001" height="40" preserveAspectRatio="xMidYMid meet" version="1.0"><defs><clipPath id="4051807929"><path d="M 1.933594 0 L 118.0625 0 L 118.0625 29.03125 L 1.933594 29.03125 Z M 1.933594 0 " clip-rule="nonzero"/></clipPath></defs><g clip-path="url(#4051807929)"><path fill="#000000" d="M 7.960938 0.167969 C 6.1875 0.257812 5.839844 0.351562 4.941406 0.824219 C 3.5 1.613281 1.6875 3.496094 0.921875 5.011719 L 0.28125 6.292969 L 0.152344 11.140625 C 0.0976562 13.828125 0.0976562 17.558594 0.1875 19.441406 L 0.335938 22.898438 L 0.992188 24.234375 C 1.46875 25.203125 1.980469 25.878906 2.914062 26.738281 C 4.46875 28.21875 5.785156 28.894531 7.539062 29.097656 C 9.277344 29.296875 110.332031 29.296875 112.066406 29.097656 C 113.804688 28.894531 115.046875 28.257812 116.65625 26.773438 C 117.644531 25.859375 118.121094 25.238281 118.632812 24.179688 L 119.328125 22.789062 L 119.382812 14.851562 C 119.4375 5.800781 119.472656 6.039062 117.9375 3.84375 C 116.894531 2.363281 115.121094 0.953125 113.605469 0.367188 C 112.652344 0.00390625 112.269531 0.00390625 61.304688 0.0390625 C 33.070312 0.0585938 9.074219 0.113281 7.960938 0.167969 Z M 77.414062 5.398438 C 78.164062 5.761719 78.65625 6.441406 78.765625 7.28125 C 78.878906 8.195312 78.601562 8.835938 77.796875 9.4375 C 77.25 9.859375 76.957031 9.949219 76.1875 9.949219 C 75.054688 9.933594 74.398438 9.546875 73.996094 8.6875 C 73.609375 7.882812 73.628906 7.261719 74.050781 6.421875 C 74.652344 5.25 76.171875 4.792969 77.414062 5.398438 Z M 67.136719 6.933594 C 67.117188 7.757812 67.0625 8.5625 67.046875 8.742188 C 67.007812 8.910156 66.917969 10.445312 66.863281 12.164062 C 66.789062 13.863281 66.699219 15.65625 66.644531 16.132812 L 66.535156 17.007812 L 65.234375 17.027344 C 62.804688 17.0625 60.296875 17.175781 60.207031 17.285156 C 60.003906 17.484375 60.609375 18.289062 61.175781 18.546875 C 61.667969 18.785156 62.527344 18.820312 67.082031 18.710938 L 72.402344 18.601562 L 72.292969 20.320312 C 72.238281 21.269531 72.183594 22.054688 72.164062 22.074219 C 72.148438 22.09375 69.808594 22.128906 66.9375 22.148438 C 62.511719 22.203125 61.578125 22.167969 60.71875 21.890625 C 57.644531 20.976562 56 18.382812 56.621094 15.417969 C 57.207031 12.566406 59.347656 10.664062 62.328125 10.296875 C 63.277344 10.1875 63.277344 10.1875 63.277344 9.53125 C 63.277344 8.5625 63.480469 5.800781 63.570312 5.523438 C 63.625 5.359375 64.082031 5.304688 65.398438 5.359375 L 67.171875 5.414062 Z M 98.296875 7.132812 C 98.296875 7.992188 98.226562 10.078125 98.152344 11.78125 L 97.988281 14.851562 L 100.070312 13.113281 L 102.15625 11.359375 L 104.660156 11.304688 C 106.035156 11.265625 107.167969 11.285156 107.167969 11.339844 C 107.167969 11.394531 106.105469 12.292969 104.808594 13.316406 C 103.507812 14.359375 102.285156 15.382812 102.066406 15.621094 L 101.664062 16.039062 L 102.980469 17.484375 C 103.710938 18.269531 105.046875 19.679688 105.941406 20.59375 L 107.570312 22.257812 L 106.964844 22.367188 C 106.617188 22.402344 105.59375 22.457031 104.679688 22.457031 L 103.035156 22.457031 L 101.152344 20.28125 C 100.109375 19.09375 99.210938 18.105469 99.15625 18.105469 C 99.085938 18.105469 98.738281 18.34375 98.390625 18.636719 C 97.785156 19.148438 97.765625 19.222656 97.65625 20.683594 L 97.566406 22.222656 L 93.761719 22.332031 L 93.890625 20.449219 C 94.019531 18.546875 94.109375 16.898438 94.273438 13.261719 C 94.496094 8.6875 94.695312 5.871094 94.824219 5.671875 C 94.859375 5.597656 95.664062 5.5625 96.597656 5.5625 L 98.296875 5.582031 Z M 20.210938 6.148438 C 20.816406 6.292969 21.730469 6.605469 22.261719 6.84375 C 23.339844 7.355469 25.058594 8.433594 25.058594 8.632812 C 25.058594 8.78125 21.566406 10.792969 21.308594 10.792969 C 21.238281 10.792969 20.78125 10.535156 20.304688 10.242188 C 18.292969 8.945312 14.453125 9.367188 14.453125 10.863281 C 14.453125 11.707031 15.21875 12.125 17.488281 12.546875 C 20.523438 13.113281 22.773438 13.734375 23.597656 14.230469 C 25.078125 15.125 25.589844 16.863281 24.96875 18.949219 C 24.472656 20.648438 22.773438 22.039062 20.394531 22.695312 C 19.097656 23.0625 16.097656 23.027344 14.582031 22.625 C 12.402344 22.039062 9.351562 20.429688 9.332031 19.84375 C 9.332031 19.734375 10.191406 19.222656 11.234375 18.691406 L 13.152344 17.703125 L 13.847656 18.253906 C 14.835938 19.039062 15.769531 19.277344 17.652344 19.277344 C 19.828125 19.277344 20.835938 18.800781 20.851562 17.777344 C 20.851562 17.265625 19.992188 16.71875 18.949219 16.550781 C 17.066406 16.242188 13.738281 15.546875 13.027344 15.289062 C 11.910156 14.886719 10.667969 13.972656 10.300781 13.296875 C 10.101562 12.929688 9.992188 12.273438 9.992188 11.503906 C 9.972656 7.316406 14.761719 4.8125 20.210938 6.148438 Z M 35.882812 10.261719 C 37.203125 10.554688 38.042969 10.992188 38.808594 11.851562 C 39.871094 13.023438 39.980469 13.882812 39.632812 18.398438 C 39.46875 20.484375 39.304688 22.203125 39.285156 22.222656 C 39.195312 22.3125 38.335938 22.347656 36.910156 22.332031 L 35.480469 22.3125 L 35.480469 21.582031 C 35.480469 20.792969 35.316406 20.667969 34.914062 21.140625 C 34.789062 21.289062 34.257812 21.652344 33.761719 21.910156 C 32.921875 22.367188 32.648438 22.402344 30.820312 22.402344 C 28.9375 22.402344 28.753906 22.367188 27.800781 21.855469 C 24.875 20.246094 25.570312 16.332031 28.992188 15.253906 C 29.59375 15.050781 30.929688 14.925781 32.886719 14.871094 C 35.136719 14.796875 35.847656 14.707031 35.847656 14.539062 C 35.847656 13.554688 34.769531 12.929688 33.085938 12.949219 C 31.863281 12.96875 29.941406 13.386719 29.519531 13.734375 C 29.375 13.863281 29.101562 13.480469 28.644531 12.511719 C 27.964844 11.085938 27.875 10.792969 28.132812 10.792969 C 28.203125 10.792969 29.007812 10.628906 29.90625 10.445312 C 31.769531 10.042969 34.457031 9.96875 35.882812 10.261719 Z M 46.015625 12 C 46.453125 12.96875 47.167969 14.59375 47.589844 15.621094 C 48.007812 16.625 48.394531 17.539062 48.464844 17.613281 C 48.539062 17.703125 48.757812 17.449219 48.960938 17.0625 C 49.363281 16.296875 50.148438 14.851562 50.917969 13.480469 C 51.171875 13.003906 51.613281 12.238281 51.867188 11.742188 C 52.617188 10.371094 52.507812 10.425781 54.882812 10.425781 C 56.089844 10.425781 57.0625 10.480469 57.0625 10.535156 C 57.0625 10.589844 56.382812 11.722656 55.542969 13.058594 C 54.703125 14.375 53.109375 17.046875 52.015625 18.984375 L 50.019531 22.515625 L 48.464844 22.457031 L 46.929688 22.402344 L 44.039062 16.386719 C 42.449219 13.078125 41.152344 10.335938 41.152344 10.296875 C 41.152344 10.261719 42.066406 10.242188 43.179688 10.242188 L 45.191406 10.242188 Z M 89.976562 11.433594 C 90.910156 11.925781 91.953125 13.113281 92.28125 14.121094 C 92.539062 14.925781 92.574219 15.511719 92.445312 18.546875 C 92.371094 20.464844 92.28125 22.09375 92.226562 22.167969 C 92.191406 22.257812 91.332031 22.3125 90.324219 22.3125 L 88.496094 22.3125 L 88.550781 18.855469 C 88.605469 15.453125 88.605469 15.382812 88.183594 14.941406 C 87.105469 13.789062 85.203125 13.917969 83.796875 15.253906 L 82.972656 16.039062 L 82.808594 18.949219 C 82.734375 20.539062 82.625 21.945312 82.589844 22.054688 C 82.554688 22.167969 82.316406 22.238281 82.078125 22.203125 C 81.859375 22.183594 81.015625 22.148438 80.230469 22.148438 L 78.785156 22.128906 L 78.894531 20.703125 C 78.949219 19.933594 79.042969 17.980469 79.113281 16.371094 C 79.167969 14.761719 79.242188 13.242188 79.28125 12.984375 C 79.296875 12.730469 79.335938 12.183594 79.351562 11.742188 L 79.371094 10.976562 L 83.210938 10.976562 L 83.210938 12.457031 L 83.742188 12.070312 C 85.460938 10.863281 88.296875 10.574219 89.976562 11.433594 Z M 77.652344 14.449219 C 77.488281 18.910156 77.339844 21.820312 77.230469 21.984375 C 77.195312 22.074219 76.316406 22.128906 75.3125 22.128906 L 73.464844 22.128906 L 73.59375 19.515625 C 73.648438 18.089844 73.757812 15.765625 73.8125 14.359375 C 73.957031 10.664062 73.71875 11.011719 75.914062 11.046875 L 77.761719 11.066406 Z M 111.097656 19.476562 C 112.121094 20.484375 111.300781 22.3125 109.820312 22.3125 C 109.324219 22.3125 109.015625 22.167969 108.59375 21.765625 C 108.117188 21.269531 108.042969 21.105469 108.136719 20.519531 C 108.375 19.113281 110.128906 18.492188 111.097656 19.476562 Z M 111.097656 19.476562 " fill-opacity="1" fill-rule="nonzero"/></g><path fill="#000000" d="M 61.925781 13.40625 C 61.175781 13.828125 60.738281 14.339844 60.9375 14.558594 C 61.011719 14.613281 61.484375 14.707031 61.980469 14.742188 C 63.003906 14.816406 62.914062 14.925781 62.984375 13.460938 C 63.003906 12.949219 62.730469 12.929688 61.925781 13.40625 Z M 61.925781 13.40625 " fill-opacity="1" fill-rule="nonzero"/><path fill="#000000" d="M 31.460938 17.285156 C 30.527344 17.578125 30.179688 17.960938 30.179688 18.65625 C 30.179688 19.878906 32.042969 20.210938 33.816406 19.3125 C 34.660156 18.875 35.664062 17.851562 35.664062 17.429688 C 35.664062 16.972656 32.792969 16.863281 31.460938 17.285156 Z M 31.460938 17.285156 " fill-opacity="1" fill-rule="nonzero"/><path fill="#000000" d="M 109.179688 19.515625 C 108.59375 19.824219 108.539062 19.898438 108.59375 20.558594 C 108.613281 20.960938 108.777344 21.433594 108.941406 21.617188 C 109.25 21.964844 110.367188 22.074219 110.550781 21.765625 C 110.625 21.652344 110.457031 21.617188 110.148438 21.691406 C 109.453125 21.835938 108.941406 21.289062 109.03125 20.464844 C 109.105469 19.753906 109.542969 19.496094 109.542969 20.171875 C 109.542969 20.738281 109.707031 21.214844 109.910156 21.214844 C 110.203125 21.214844 110.222656 20.574219 109.945312 20.246094 C 109.617188 19.878906 109.726562 19.699219 110.167969 19.863281 C 110.332031 19.917969 110.511719 20.171875 110.570312 20.429688 C 110.660156 20.777344 110.734375 20.832031 110.859375 20.628906 C 110.988281 20.464844 111.007812 20.59375 110.933594 21.03125 C 110.84375 21.636719 110.84375 21.652344 111.097656 21.324219 C 111.246094 21.125 111.371094 20.777344 111.371094 20.539062 C 111.371094 20.117188 110.804688 19.386719 110.476562 19.386719 C 110.386719 19.386719 110.203125 19.351562 110.054688 19.296875 C 109.929688 19.242188 109.527344 19.351562 109.179688 19.515625 Z M 109.179688 19.515625 " fill-opacity="1" fill-rule="nonzero"/></svg>